<mxfile host="app.diagrams.net" modified="2022-11-12T14:23:12.638Z" agent="5.0 (Windows NT 10.0; Win64; x64) AppleWebKit/537.36 (KHTML, like Gecko) Chrome/107.0.0.0 Safari/537.36 Edg/107.0.1418.42" etag="icyy80K06HSrRVdP8i2X" version="20.5.1" type="github">
  <diagram id="d-_fUFz39gF-lpxqAu1C" name="第 1 页">
    <mxGraphModel dx="1038" dy="600" grid="0" gridSize="10" guides="1" tooltips="1" connect="1" arrows="1" fold="1" page="1" pageScale="1" pageWidth="827" pageHeight="1169" math="0" shadow="0">
      <root>
        <mxCell id="0" />
        <mxCell id="1" parent="0" />
        <mxCell id="W4qq7UWC8i06zEr3qLzj-70" value="" style="rounded=0;whiteSpace=wrap;html=1;" vertex="1" parent="1">
          <mxGeometry x="37" y="17" width="414" height="563" as="geometry" />
        </mxCell>
        <mxCell id="W4qq7UWC8i06zEr3qLzj-3" value="食堂工作信息" style="rounded=0;whiteSpace=wrap;html=1;fillColor=#fff2cc;strokeColor=#d6b656;" vertex="1" parent="1">
          <mxGeometry x="187" y="56.25" width="61" height="35.5" as="geometry" />
        </mxCell>
        <mxCell id="W4qq7UWC8i06zEr3qLzj-4" value="食堂菜品信息" style="rounded=0;whiteSpace=wrap;html=1;fillColor=#fff2cc;strokeColor=#d6b656;" vertex="1" parent="1">
          <mxGeometry x="264" y="56.25" width="61" height="35.5" as="geometry" />
        </mxCell>
        <mxCell id="W4qq7UWC8i06zEr3qLzj-5" value="食堂财务信息" style="rounded=0;whiteSpace=wrap;html=1;fillColor=#fff2cc;strokeColor=#d6b656;" vertex="1" parent="1">
          <mxGeometry x="342" y="58.25" width="61" height="35.5" as="geometry" />
        </mxCell>
        <mxCell id="W4qq7UWC8i06zEr3qLzj-8" value="" style="endArrow=none;dashed=1;html=1;dashPattern=1 3;strokeWidth=2;rounded=0;entryX=0.5;entryY=0;entryDx=0;entryDy=0;startArrow=none;" edge="1" parent="1" target="W4qq7UWC8i06zEr3qLzj-9">
          <mxGeometry width="50" height="50" relative="1" as="geometry">
            <mxPoint x="104" y="99" as="sourcePoint" />
            <mxPoint x="86.58333333333326" y="226" as="targetPoint" />
          </mxGeometry>
        </mxCell>
        <mxCell id="W4qq7UWC8i06zEr3qLzj-9" value="" style="rounded=0;whiteSpace=wrap;html=1;fillColor=#fff2cc;strokeColor=#d6b656;" vertex="1" parent="1">
          <mxGeometry x="90" y="178" width="28" height="299.75" as="geometry" />
        </mxCell>
        <mxCell id="W4qq7UWC8i06zEr3qLzj-10" value="" style="endArrow=none;dashed=1;html=1;dashPattern=1 3;strokeWidth=2;rounded=0;exitX=0.5;exitY=1;exitDx=0;exitDy=0;" edge="1" parent="1" source="W4qq7UWC8i06zEr3qLzj-9">
          <mxGeometry width="50" height="50" relative="1" as="geometry">
            <mxPoint x="99" y="454" as="sourcePoint" />
            <mxPoint x="104" y="551" as="targetPoint" />
          </mxGeometry>
        </mxCell>
        <mxCell id="W4qq7UWC8i06zEr3qLzj-11" value="" style="endArrow=none;dashed=1;html=1;dashPattern=1 3;strokeWidth=2;rounded=0;entryX=0.5;entryY=0;entryDx=0;entryDy=0;exitX=0.5;exitY=1;exitDx=0;exitDy=0;" edge="1" parent="1" source="W4qq7UWC8i06zEr3qLzj-3" target="W4qq7UWC8i06zEr3qLzj-12">
          <mxGeometry width="50" height="50" relative="1" as="geometry">
            <mxPoint x="217.5" y="110" as="sourcePoint" />
            <mxPoint x="200.08333333333326" y="238" as="targetPoint" />
          </mxGeometry>
        </mxCell>
        <mxCell id="W4qq7UWC8i06zEr3qLzj-12" value="" style="rounded=0;whiteSpace=wrap;html=1;fillColor=#fff2cc;strokeColor=#d6b656;" vertex="1" parent="1">
          <mxGeometry x="203.75" y="181" width="27.5" height="45" as="geometry" />
        </mxCell>
        <mxCell id="W4qq7UWC8i06zEr3qLzj-13" value="" style="endArrow=none;dashed=1;html=1;dashPattern=1 3;strokeWidth=2;rounded=0;exitX=0.5;exitY=1;exitDx=0;exitDy=0;" edge="1" parent="1" source="W4qq7UWC8i06zEr3qLzj-12">
          <mxGeometry width="50" height="50" relative="1" as="geometry">
            <mxPoint x="201.5" y="466" as="sourcePoint" />
            <mxPoint x="218" y="550" as="targetPoint" />
          </mxGeometry>
        </mxCell>
        <mxCell id="W4qq7UWC8i06zEr3qLzj-14" value="" style="endArrow=none;dashed=1;html=1;dashPattern=1 3;strokeWidth=2;rounded=0;entryX=0.5;entryY=0;entryDx=0;entryDy=0;" edge="1" parent="1" target="W4qq7UWC8i06zEr3qLzj-15">
          <mxGeometry width="50" height="50" relative="1" as="geometry">
            <mxPoint x="294.5" y="91.75" as="sourcePoint" />
            <mxPoint x="277.08333333333326" y="219.75" as="targetPoint" />
          </mxGeometry>
        </mxCell>
        <mxCell id="W4qq7UWC8i06zEr3qLzj-15" value="" style="rounded=0;whiteSpace=wrap;html=1;fillColor=#fff2cc;strokeColor=#d6b656;" vertex="1" parent="1">
          <mxGeometry x="280.5" y="229" width="28" height="49" as="geometry" />
        </mxCell>
        <mxCell id="W4qq7UWC8i06zEr3qLzj-16" value="" style="endArrow=none;dashed=1;html=1;dashPattern=1 3;strokeWidth=2;rounded=0;exitX=0.5;exitY=1;exitDx=0;exitDy=0;" edge="1" parent="1" source="W4qq7UWC8i06zEr3qLzj-15">
          <mxGeometry width="50" height="50" relative="1" as="geometry">
            <mxPoint x="289.5" y="447.75" as="sourcePoint" />
            <mxPoint x="294.5" y="544.75" as="targetPoint" />
          </mxGeometry>
        </mxCell>
        <mxCell id="W4qq7UWC8i06zEr3qLzj-17" value="" style="endArrow=none;dashed=1;html=1;dashPattern=1 3;strokeWidth=2;rounded=0;entryX=0.5;entryY=0;entryDx=0;entryDy=0;" edge="1" parent="1" target="W4qq7UWC8i06zEr3qLzj-18">
          <mxGeometry width="50" height="50" relative="1" as="geometry">
            <mxPoint x="372.5" y="100" as="sourcePoint" />
            <mxPoint x="355.08333333333326" y="228" as="targetPoint" />
          </mxGeometry>
        </mxCell>
        <mxCell id="W4qq7UWC8i06zEr3qLzj-18" value="" style="rounded=0;whiteSpace=wrap;html=1;fillColor=#fff2cc;strokeColor=#d6b656;" vertex="1" parent="1">
          <mxGeometry x="358.5" y="278" width="28" height="52" as="geometry" />
        </mxCell>
        <mxCell id="W4qq7UWC8i06zEr3qLzj-19" value="" style="endArrow=none;dashed=1;html=1;dashPattern=1 3;strokeWidth=2;rounded=0;exitX=0.5;exitY=1;exitDx=0;exitDy=0;" edge="1" parent="1" source="W4qq7UWC8i06zEr3qLzj-18">
          <mxGeometry width="50" height="50" relative="1" as="geometry">
            <mxPoint x="367.5" y="456" as="sourcePoint" />
            <mxPoint x="372.5" y="553" as="targetPoint" />
          </mxGeometry>
        </mxCell>
        <mxCell id="W4qq7UWC8i06zEr3qLzj-59" value="食堂管理人员" style="shape=umlActor;verticalLabelPosition=bottom;verticalAlign=top;html=1;outlineConnect=0;" vertex="1" parent="1">
          <mxGeometry x="93.5" y="41.5" width="21" height="48" as="geometry" />
        </mxCell>
        <mxCell id="W4qq7UWC8i06zEr3qLzj-60" value="" style="endArrow=none;dashed=1;html=1;dashPattern=1 3;strokeWidth=2;rounded=0;" edge="1" parent="1">
          <mxGeometry width="50" height="50" relative="1" as="geometry">
            <mxPoint x="104" y="87" as="sourcePoint" />
            <mxPoint x="104" y="87" as="targetPoint" />
          </mxGeometry>
        </mxCell>
        <mxCell id="W4qq7UWC8i06zEr3qLzj-64" value="" style="endArrow=classic;html=1;rounded=0;" edge="1" parent="1">
          <mxGeometry width="50" height="50" relative="1" as="geometry">
            <mxPoint x="195" y="203" as="sourcePoint" />
            <mxPoint x="135" y="203" as="targetPoint" />
          </mxGeometry>
        </mxCell>
        <mxCell id="W4qq7UWC8i06zEr3qLzj-65" value="showWorkInfo()" style="text;html=1;strokeColor=none;fillColor=none;align=center;verticalAlign=middle;whiteSpace=wrap;rounded=0;" vertex="1" parent="1">
          <mxGeometry x="131" y="178" width="60" height="30" as="geometry" />
        </mxCell>
        <mxCell id="W4qq7UWC8i06zEr3qLzj-66" value="" style="endArrow=classic;html=1;rounded=0;" edge="1" parent="1">
          <mxGeometry width="50" height="50" relative="1" as="geometry">
            <mxPoint x="272" y="251" as="sourcePoint" />
            <mxPoint x="133" y="251" as="targetPoint" />
          </mxGeometry>
        </mxCell>
        <mxCell id="W4qq7UWC8i06zEr3qLzj-67" value="showMealInfo()" style="text;html=1;strokeColor=none;fillColor=none;align=center;verticalAlign=middle;whiteSpace=wrap;rounded=0;" vertex="1" parent="1">
          <mxGeometry x="188" y="226" width="60" height="30" as="geometry" />
        </mxCell>
        <mxCell id="W4qq7UWC8i06zEr3qLzj-68" value="" style="endArrow=classic;html=1;rounded=0;" edge="1" parent="1">
          <mxGeometry width="50" height="50" relative="1" as="geometry">
            <mxPoint x="348" y="309" as="sourcePoint" />
            <mxPoint x="135" y="309" as="targetPoint" />
          </mxGeometry>
        </mxCell>
        <mxCell id="W4qq7UWC8i06zEr3qLzj-69" value="getBillInfo()" style="text;html=1;strokeColor=none;fillColor=none;align=center;verticalAlign=middle;whiteSpace=wrap;rounded=0;" vertex="1" parent="1">
          <mxGeometry x="226" y="283" width="60" height="30" as="geometry" />
        </mxCell>
      </root>
    </mxGraphModel>
  </diagram>
</mxfile>
